<svg width="512" height="512" viewBox="0 0 512 512" fill="none" xmlns="http://www.w3.org/2000/svg">
<path d="M113 176V160H81V176H113ZM96.751 397.251L80.751 397.218C80.751 397.245 80.751 397.272 80.751 397.299L96.751 397.251ZM136.751 437.251L136.703 453.251C136.719 453.251 136.735 453.251 136.751 453.251L136.751 437.251ZM384.251 437.251V453.251C384.267 453.251 384.283 453.251 384.299 453.251L384.251 437.251ZM424.251 397.251L440.251 397.299C440.251 397.283 440.251 397.267 440.251 397.251L424.251 397.251ZM440.251 176V160H408.251V176H440.251ZM81 176C81 225.976 80.9378 281.28 80.8755 324.092C80.8444 345.498 80.8133 363.78 80.7899 376.71C80.7782 383.175 80.7685 388.303 80.7617 391.813C80.7583 393.569 80.7556 394.92 80.7538 395.832C80.7529 396.289 80.7522 396.635 80.7517 396.867C80.7515 396.984 80.7513 397.071 80.7512 397.13C80.7511 397.159 80.7511 397.181 80.7511 397.196C80.751 397.203 80.751 397.209 80.751 397.212C80.751 397.214 80.751 397.216 80.751 397.217C80.751 397.217 80.751 397.218 96.751 397.251C112.751 397.284 112.751 397.283 112.751 397.282C112.751 397.281 112.751 397.28 112.751 397.278C112.751 397.274 112.751 397.269 112.751 397.261C112.751 397.247 112.751 397.224 112.751 397.195C112.751 397.136 112.751 397.049 112.752 396.932C112.752 396.7 112.753 396.353 112.754 395.896C112.756 394.983 112.758 393.631 112.762 391.875C112.768 388.363 112.778 383.235 112.79 376.768C112.813 363.835 112.844 345.549 112.875 324.139C112.938 281.32 113 225.998 113 176H81ZM80.751 397.299C80.7953 412.124 86.7045 426.33 97.188 436.814L119.815 414.186C115.31 409.681 112.77 403.575 112.751 397.203L80.751 397.299ZM97.188 436.814C107.671 447.297 121.877 453.206 136.703 453.251L136.799 421.251C130.427 421.232 124.321 418.692 119.815 414.186L97.188 436.814ZM136.751 453.251H384.251V421.251H136.751V453.251ZM384.299 453.251C399.125 453.206 413.331 447.297 423.814 436.814L401.187 414.186C396.681 418.692 390.575 421.232 384.203 421.251L384.299 453.251ZM423.814 436.814C434.297 426.33 440.207 412.124 440.251 397.299L408.251 397.203C408.232 403.575 405.692 409.681 401.187 414.186L423.814 436.814ZM440.251 397.251V176H408.251V397.251H440.251Z" fill="black" fill-opacity="0.4"/>
<path d="M436 64H79.5C64.036 64 51 76.536 51 92V116C51 131.464 64.036 144 79.5 144H436C451.464 144 464 131.464 464 116V92C464 76.536 451.464 64 436 64Z" stroke="black" stroke-opacity="0.4" stroke-width="32" stroke-linejoin="round"/>
<path d="M334.328 227.188H186.672C176.964 227.188 169.094 235.057 169.094 244.766V350.234C169.094 359.943 176.964 367.812 186.672 367.812H334.328C344.036 367.812 351.906 359.943 351.906 350.234V244.766C351.906 235.057 344.036 227.188 334.328 227.188Z" stroke="black" stroke-opacity="0.4" stroke-width="16" stroke-linecap="round" stroke-linejoin="round"/>
<path d="M197.219 255.312L260.5 304.531L323.781 255.312" stroke="black" stroke-opacity="0.4" stroke-width="16" stroke-linecap="round" stroke-linejoin="round"/>
</svg>
