<svg width="566" height="512" viewBox="0 0 566 512" fill="none" xmlns="http://www.w3.org/2000/svg">
<path d="M475 146V162H507V146H475ZM59 146V162H91V146H59ZM507 238V222H475V238H507ZM91 238V222H59V238H91ZM131 112H435V80H131V112ZM435 112C447.272 112 457.416 115.783 464.222 121.581C470.787 127.175 475 135.223 475 146H507C507 125.849 498.677 108.897 484.974 97.2229C471.512 85.7532 453.656 80 435 80V112ZM475 360C475 382.091 457.091 400 435 400V432C474.765 432 507 399.765 507 360H475ZM435 400H131V432H435V400ZM131 400C108.909 400 91 382.091 91 360H59C59 399.765 91.2355 432 131 432V400ZM91 146C91 135.223 95.2127 127.175 101.778 121.581C108.584 115.783 118.728 112 131 112V80C112.344 80 94.488 85.7532 81.0256 97.2229C67.3234 108.897 59 125.849 59 146H91ZM475 238V360H507V238H475ZM91 360V238H59V360H91Z" fill="black" fill-opacity="0.4"/>
<path d="M60 192H506H60ZM145.769 300H197.231V320H145.769V300Z" stroke="black" stroke-opacity="0.4" stroke-width="60" stroke-linejoin="round"/>
</svg>
